<svg width="146" height="48" viewBox="0 0 146 48" fill="none" xmlns="http://www.w3.org/2000/svg">
<rect width="146" height="48" rx="8" fill="#3487CF"/>
<path fill-rule="evenodd" clip-rule="evenodd" d="M29.5581 16.0581C29.8021 15.814 30.1979 15.814 30.4419 16.0581L34.6086 20.2247C34.8527 20.4688 34.8527 20.8645 34.6086 21.1086C34.3645 21.3527 33.9688 21.3527 33.7247 21.1086L30.625 18.0089V26.5C30.625 26.8452 30.3452 27.125 30 27.125C29.6548 27.125 29.375 26.8452 29.375 26.5V18.0089L26.2753 21.1086C26.0312 21.3527 25.6355 21.3527 25.3914 21.1086C25.1473 20.8645 25.1473 20.4688 25.3914 20.2247L29.5581 16.0581ZM22.5 25.875C22.8452 25.875 23.125 26.1548 23.125 26.5V29.8333C23.125 30.1096 23.2347 30.3746 23.4301 30.5699C23.6254 30.7653 23.8904 30.875 24.1667 30.875H35.8333C36.1096 30.875 36.3746 30.7653 36.5699 30.5699C36.7653 30.3746 36.875 30.1096 36.875 29.8333V26.5C36.875 26.1548 37.1548 25.875 37.5 25.875C37.8452 25.875 38.125 26.1548 38.125 26.5V29.8333C38.125 30.4411 37.8836 31.024 37.4538 31.4538C37.024 31.8836 36.4411 32.125 35.8333 32.125H24.1667C23.5589 32.125 22.976 31.8836 22.5462 31.4538C22.1164 31.024 21.875 30.4411 21.875 29.8333V26.5C21.875 26.1548 22.1548 25.875 22.5 25.875Z" fill="#F9F9F9"/>
<path d="M53.5 30V18.5781H55.375V28.4062H60.2266V30H53.5ZM65.4062 21.1875C66.5 21.1875 67.3255 21.4297 67.8828 21.9141C68.4453 22.3984 68.7266 23.1536 68.7266 24.1797V30H67.4219L67.0703 28.7734H67.0078C66.763 29.0859 66.5104 29.3438 66.25 29.5469C65.9896 29.75 65.6875 29.901 65.3438 30C65.0052 30.1042 64.5911 30.1562 64.1016 30.1562C63.5859 30.1562 63.125 30.0625 62.7188 29.875C62.3125 29.6823 61.9922 29.3906 61.7578 29C61.5234 28.6094 61.4062 28.1146 61.4062 27.5156C61.4062 26.625 61.737 25.9557 62.3984 25.5078C63.0651 25.0599 64.0703 24.8125 65.4141 24.7656L66.9141 24.7109V24.2578C66.9141 23.6589 66.7734 23.2318 66.4922 22.9766C66.2161 22.7214 65.8255 22.5938 65.3203 22.5938C64.888 22.5938 64.4688 22.6562 64.0625 22.7812C63.6562 22.9062 63.2604 23.0599 62.875 23.2422L62.2812 21.9453C62.7031 21.7214 63.1823 21.5391 63.7188 21.3984C64.2604 21.2578 64.8229 21.1875 65.4062 21.1875ZM66.9062 25.8672L65.7891 25.9062C64.8724 25.9375 64.2292 26.0938 63.8594 26.375C63.4896 26.6562 63.3047 27.0417 63.3047 27.5312C63.3047 27.9583 63.4323 28.2708 63.6875 28.4688C63.9427 28.6615 64.2786 28.7578 64.6953 28.7578C65.3307 28.7578 65.8568 28.5781 66.2734 28.2188C66.6953 27.8542 66.9062 27.3203 66.9062 26.6172V25.8672ZM73.1328 17.8438V20.7734C73.1328 21.112 73.1224 21.4453 73.1016 21.7734C73.0859 22.0964 73.0703 22.349 73.0547 22.5312H73.1328C73.3672 22.1562 73.6927 21.8411 74.1094 21.5859C74.5312 21.3255 75.0703 21.1953 75.7266 21.1953C76.7526 21.1953 77.5781 21.5729 78.2031 22.3281C78.8281 23.0781 79.1406 24.1901 79.1406 25.6641C79.1406 26.6432 78.9974 27.4661 78.7109 28.1328C78.4245 28.7995 78.0208 29.3047 77.5 29.6484C76.9844 29.987 76.3776 30.1562 75.6797 30.1562C75.0234 30.1562 74.4922 30.0365 74.0859 29.7969C73.6849 29.5521 73.3698 29.2682 73.1406 28.9453H73.0078L72.6719 30H71.2969V17.8438H73.1328ZM75.2422 22.6875C74.7214 22.6875 74.3073 22.7917 74 23C73.6979 23.2083 73.4792 23.5208 73.3438 23.9375C73.2083 24.349 73.138 24.8724 73.1328 25.5078V25.6719C73.1328 26.6354 73.2839 27.3724 73.5859 27.8828C73.8932 28.3932 74.4505 28.6484 75.2578 28.6484C75.8984 28.6484 76.3906 28.3906 76.7344 27.875C77.0781 27.3542 77.25 26.6094 77.25 25.6406C77.25 24.6615 77.0781 23.9245 76.7344 23.4297C76.3958 22.9349 75.8984 22.6875 75.2422 22.6875ZM84.7109 21.1875C85.4818 21.1875 86.1432 21.3464 86.6953 21.6641C87.2474 21.9818 87.6719 22.4323 87.9688 23.0156C88.2656 23.599 88.4141 24.2969 88.4141 25.1094V26.0938H82.6406C82.6615 26.9323 82.8854 27.5781 83.3125 28.0312C83.7448 28.4844 84.349 28.7109 85.125 28.7109C85.6771 28.7109 86.1719 28.6589 86.6094 28.5547C87.0521 28.4453 87.5078 28.2865 87.9766 28.0781V29.5703C87.5443 29.7734 87.1042 29.9219 86.6562 30.0156C86.2083 30.1094 85.6719 30.1562 85.0469 30.1562C84.1979 30.1562 83.4505 29.9922 82.8047 29.6641C82.1641 29.3307 81.6615 28.8359 81.2969 28.1797C80.9375 27.5234 80.7578 26.7083 80.7578 25.7344C80.7578 24.7656 80.9219 23.9427 81.25 23.2656C81.5781 22.5885 82.0391 22.0729 82.6328 21.7188C83.2266 21.3646 83.9193 21.1875 84.7109 21.1875ZM84.7109 22.5703C84.1328 22.5703 83.6641 22.7578 83.3047 23.1328C82.9505 23.5078 82.7422 24.0573 82.6797 24.7812H86.6172C86.612 24.349 86.5391 23.9661 86.3984 23.6328C86.263 23.2995 86.0547 23.0391 85.7734 22.8516C85.4974 22.6641 85.1432 22.5703 84.7109 22.5703ZM92.3281 30H90.4844V17.8438H92.3281V30Z" fill="#F9F9F9"/>
<path fill-rule="evenodd" clip-rule="evenodd" d="M115.558 16.0581C115.802 15.814 116.198 15.814 116.442 16.0581L120.609 20.2247C120.853 20.4688 120.853 20.8645 120.609 21.1086C120.365 21.3527 119.969 21.3527 119.725 21.1086L116.625 18.0089V26.5C116.625 26.8452 116.345 27.125 116 27.125C115.655 27.125 115.375 26.8452 115.375 26.5V18.0089L112.275 21.1086C112.031 21.3527 111.635 21.3527 111.391 21.1086C111.147 20.8645 111.147 20.4688 111.391 20.2247L115.558 16.0581ZM108.5 25.875C108.845 25.875 109.125 26.1548 109.125 26.5V29.8333C109.125 30.1096 109.235 30.3746 109.43 30.5699C109.625 30.7653 109.89 30.875 110.167 30.875H121.833C122.11 30.875 122.375 30.7653 122.57 30.5699C122.765 30.3746 122.875 30.1096 122.875 29.8333V26.5C122.875 26.1548 123.155 25.875 123.5 25.875C123.845 25.875 124.125 26.1548 124.125 26.5V29.8333C124.125 30.4411 123.884 31.024 123.454 31.4538C123.024 31.8836 122.441 32.125 121.833 32.125H110.167C109.559 32.125 108.976 31.8836 108.546 31.4538C108.116 31.024 107.875 30.4411 107.875 29.8333V26.5C107.875 26.1548 108.155 25.875 108.5 25.875Z" fill="#F9F9F9"/>
</svg>
